<?xml version="1.0" standalone="no"?>
<!DOCTYPE svg PUBLIC "-//W3C//DTD SVG 20010904//EN"
 "http://www.w3.org/TR/2001/REC-SVG-20010904/DTD/svg10.dtd">
<svg version="1.0" xmlns="http://www.w3.org/2000/svg"
 width="96.000000pt" height="96.000000pt" viewBox="0 0 96.000000 96.000000"
 preserveAspectRatio="xMidYMid meet">
<metadata>
Created by potrace 1.14, written by Peter Selinger 2001-2017
</metadata>
<g transform="translate(0.000000,96.000000) scale(0.100000,-0.100000)"
fill="#000000" stroke="none">
<path d="M106 854 c-14 -13 -16 -61 -16 -374 0 -313 2 -361 16 -374 13 -14 61
-16 374 -16 313 0 361 2 374 16 14 13 16 56 16 316 l0 302 -73 73 -73 73 -302
0 c-260 0 -303 -2 -316 -16z m104 -137 c0 -82 4 -127 12 -135 17 -17 439 -17
456 0 8 8 12 53 12 135 0 87 3 123 12 123 6 0 40 -29 75 -63 l63 -64 -2 -294
-3 -294 -42 -3 -43 -3 0 183 c0 130 -4 188 -12 196 -17 17 -499 17 -516 0 -8
-8 -12 -66 -12 -196 l0 -183 -42 3 -43 3 -3 345 c-1 190 0 351 3 357 2 8 22
13 45 13 l40 0 0 -123z m448 6 l-3 -118 -205 0 -205 0 -3 118 -3 117 211 0
211 0 -3 -117z m60 -426 l2 -177 -240 0 -240 0 0 173 c0 96 3 177 7 181 4 3
110 5 237 4 l231 -3 3 -178z"/>
<path d="M552 798 c-7 -7 -12 -40 -12 -78 0 -70 10 -90 45 -90 35 0 45 20 45
90 0 70 -10 90 -45 90 -12 0 -26 -5 -33 -12z m46 -84 c-2 -27 -7 -49 -13 -49
-11 0 -19 79 -10 103 11 30 26 -5 23 -54z"/>
<path d="M305 410 c-3 -5 0 -13 8 -15 24 -10 217 -1 220 10 3 14 -219 19 -228
5z"/>
<path d="M575 410 c-3 -5 0 -13 9 -16 21 -8 71 -1 71 11 0 14 -72 19 -80 5z"/>
<path d="M305 350 c-3 -5 0 -12 7 -15 25 -10 283 0 283 10 0 14 -281 19 -290
5z"/>
<path d="M270 210 c0 -20 5 -30 15 -30 10 0 15 10 15 30 0 20 -5 30 -15 30
-10 0 -15 -10 -15 -30z"/>
<path d="M344 226 c-8 -22 3 -49 19 -43 6 2 12 14 12 27 0 27 -22 39 -31 16z"/>
<path d="M420 210 c0 -20 5 -30 15 -30 10 0 15 10 15 30 0 20 -5 30 -15 30
-10 0 -15 -10 -15 -30z"/>
<path d="M494 226 c-8 -22 3 -49 19 -43 6 2 12 14 12 27 0 27 -22 39 -31 16z"/>
<path d="M570 210 c0 -20 5 -30 15 -30 10 0 15 10 15 30 0 20 -5 30 -15 30
-10 0 -15 -10 -15 -30z"/>
<path d="M644 226 c-8 -22 3 -49 19 -43 6 2 12 14 12 27 0 27 -22 39 -31 16z"/>
</g>
</svg>
